<?xml version="1.0" encoding="iso-8859-1"?>
<!-- Generator: Adobe Illustrator 19.0.0, SVG Export Plug-In . SVG Version: 6.00 Build 0)  -->
<svg version="1.1" id="Capa_1" xmlns="http://www.w3.org/2000/svg" xmlns:xlink="http://www.w3.org/1999/xlink" x="0px" y="0px"
	 viewBox="0 0 368 368" style="enable-background:new 0 0 368 368;" xml:space="preserve">
<path style="fill:#CCE4FF;" d="M184,8c97.2,0,176,78.8,176,176s-78.8,176-176,176S8,281.2,8,184S86.8,8,184,8z M264,184L184,72
	l-80,112h48v104c0,4.4,3.6,8,8,8h48c4.4,0,8-3.6,8-8V184H264z"/>
<g>
	<path style="fill:#007AFF;" d="M184,0C82.544,0,0,82.544,0,184s82.544,184,184,184s184-82.544,184-184S285.456,0,184,0z M184,352
		c-92.64,0-168-75.36-168-168S91.36,16,184,16s168,75.36,168,168S276.64,352,184,352z"/>
	<path style="fill:#007AFF;" d="M190.512,67.352c-3.008-4.208-10.016-4.208-13.024,0l-80,112c-1.736,2.44-1.976,5.648-0.6,8.312
		S101,192,104,192h40v96c0,8.824,7.176,16,16,16h48c8.824,0,16-7.176,16-16v-96h40c3,0,5.744-1.672,7.112-4.336
		s1.136-5.872-0.6-8.312L190.512,67.352z M216,176c-4.416,0-8,3.584-8,8v104l-48-0.024V184c0-4.416-3.584-8-8-8h-32.456L184,85.768
		L248.456,176H216z"/>
</g>
<g>
</g>
<g>
</g>
<g>
</g>
<g>
</g>
<g>
</g>
<g>
</g>
<g>
</g>
<g>
</g>
<g>
</g>
<g>
</g>
<g>
</g>
<g>
</g>
<g>
</g>
<g>
</g>
<g>
</g>
</svg>
